<?xml version="1.0" encoding="utf-8"?>
<!-- Generator: Adobe Illustrator 16.0.0, SVG Export Plug-In . SVG Version: 6.00 Build 0)  -->
<svg version="1.2" baseProfile="tiny" id="Layer_1" xmlns="http://www.w3.org/2000/svg" xmlns:xlink="http://www.w3.org/1999/xlink"
	 x="0px" y="0px" width="113px" height="113px" viewBox="0 0 113 113" xml:space="preserve">
<g>
	
		<rect x="31.291" y="33.667" fill="none" stroke="#FFFFFF" stroke-width="5" stroke-linejoin="round" stroke-miterlimit="10" width="50" height="50"/>
	<line fill="none" stroke="#FFFFFF" stroke-width="2" stroke-miterlimit="10" x1="31.291" y1="46.667" x2="81.291" y2="46.667"/>
	<g>
		<path fill="#FFFFFF" d="M59.502,60.226c0-0.194-0.02-0.438-0.059-0.729c-0.039-0.291-0.145-0.578-0.32-0.859
			c-0.174-0.282-0.434-0.525-0.773-0.729s-0.82-0.306-1.443-0.306c-0.836,0-1.482,0.238-1.938,0.714
			c-0.457,0.477-0.686,1.21-0.686,2.202v7.727c0,0.992,0.229,1.727,0.686,2.202c0.455,0.477,1.111,0.714,1.967,0.714
			c0.584,0,1.041-0.097,1.371-0.291s0.584-0.438,0.758-0.729c0.176-0.292,0.287-0.607,0.336-0.948
			c0.049-0.34,0.082-0.656,0.102-0.948c0.039-0.543,0.277-0.908,0.715-1.093s0.947-0.277,1.531-0.277
			c0.797,0,1.379,0.142,1.75,0.423c0.369,0.282,0.553,0.86,0.553,1.735c0,0.972-0.184,1.837-0.553,2.595
			c-0.371,0.759-0.885,1.396-1.547,1.91c-0.66,0.516-1.434,0.909-2.318,1.182c-0.885,0.271-1.852,0.408-2.9,0.408
			c-0.953,0-1.852-0.122-2.697-0.365c-0.846-0.242-1.59-0.641-2.23-1.195c-0.643-0.554-1.148-1.264-1.518-2.129
			s-0.553-1.929-0.553-3.193v-7.727c0-1.244,0.184-2.305,0.553-3.18c0.369-0.874,0.875-1.589,1.518-2.143
			c0.641-0.555,1.385-0.953,2.23-1.195c0.846-0.243,1.744-0.365,2.697-0.365c1.049,0,2.016,0.127,2.9,0.379
			c0.885,0.254,1.658,0.627,2.318,1.123c0.662,0.496,1.176,1.104,1.547,1.822c0.369,0.72,0.553,1.546,0.553,2.479
			c0,0.875-0.184,1.454-0.553,1.736c-0.371,0.281-0.943,0.422-1.721,0.422c-0.623,0-1.148-0.097-1.574-0.291
			C59.773,61.11,59.541,60.75,59.502,60.226z"/>
	</g>
	<polyline fill="none" stroke="#FFFFFF" stroke-width="2" stroke-linecap="round" stroke-miterlimit="10" points="21.291,55.385 
		12.061,64.613 21.17,73.721 	"/>
	<polyline fill="none" stroke="#FFFFFF" stroke-width="2" stroke-linecap="round" stroke-miterlimit="10" points="91.291,74.551 
		100.939,64.904 91.42,55.385 	"/>
	
		<line fill="none" stroke="#FFFFFF" stroke-width="5" stroke-linecap="round" stroke-linejoin="round" stroke-miterlimit="10" x1="44.625" y1="38" x2="44.625" y2="29.333"/>
	
		<line fill="none" stroke="#FFFFFF" stroke-width="5" stroke-linecap="round" stroke-linejoin="round" stroke-miterlimit="10" x1="67.959" y1="38" x2="67.959" y2="29.333"/>
</g>
</svg>
